<?xml version="1.0" standalone="no"?><!DOCTYPE svg PUBLIC "-//W3C//DTD SVG 1.1//EN" "http://www.w3.org/Graphics/SVG/1.1/DTD/svg11.dtd"><svg t="1597135421357" class="icon" viewBox="0 0 1024 1024" version="1.1" xmlns="http://www.w3.org/2000/svg" p-id="5283" xmlns:xlink="http://www.w3.org/1999/xlink" width="16" height="16"><defs><style type="text/css"></style></defs><path d="M822.00345 776.822434l0.022512-0.022512-575.521732-575.482847c-5.78782-5.791913-13.785981-9.374508-22.621207-9.374508-17.662265 0-31.980365 14.3181-31.980365 31.980365 0 8.834202 3.582595 16.832364 9.373485 22.620184L776.11226 821.339324c5.838985 6.277984 14.166651 10.209526 23.416316 10.209526 17.662265 0 31.980365-14.3181 31.980365-31.980365 0-8.900717-3.637854-16.947997-9.505491-22.746051z" p-id="5284" fill="#515151"></path><path d="M776.783549 201.448058l-0.022513-0.022513L201.278189 776.947278c-5.791913 5.78782-9.374508 13.785981-9.374508 22.621207 0 17.662265 14.3181 31.980365 31.980366 31.980365 8.834202 0 16.832364-3.582595 22.620183-9.373485l574.797232-574.836117c6.277984-5.838985 10.209526-14.166651 10.209526-23.416316 0-17.662265-14.3181-31.980365-31.980366-31.980365-8.901741 0-16.950044 3.637854-22.747073 9.505491z" p-id="5285" fill="#515151"></path></svg>